<svg width="635" height="558" viewBox="0 0 635 558" fill="none" xmlns="http://www.w3.org/2000/svg">
<path opacity="0.4" d="M311.9 497.217C424.21 497.217 515.255 406.11 515.255 293.724C515.255 181.338 424.21 90.2314 311.9 90.2314C199.591 90.2314 108.546 181.338 108.546 293.724C108.546 406.11 199.591 497.217 311.9 497.217Z" stroke="#3AD29F" stroke-width="5" stroke-miterlimit="10" stroke-dasharray="12 12"/>
<path opacity="0.4" d="M311.9 448.892C397.539 448.892 466.963 379.421 466.963 293.724C466.963 208.027 397.539 138.556 311.9 138.556C226.262 138.556 156.838 208.027 156.838 293.724C156.838 379.421 226.262 448.892 311.9 448.892Z" stroke="#3AD29F" stroke-width="5" stroke-miterlimit="10" stroke-dasharray="12 12"/>
<path d="M579.77 320.529C580.063 320.519 580.341 320.395 580.545 320.184C580.749 319.973 580.863 319.69 580.863 319.397C580.863 319.103 580.749 318.82 580.545 318.609C580.341 318.398 580.063 318.274 579.77 318.264C579.477 318.274 579.199 318.398 578.995 318.609C578.791 318.82 578.677 319.103 578.677 319.397C578.677 319.69 578.791 319.973 578.995 320.184C579.199 320.395 579.477 320.519 579.77 320.529Z" fill="#F5F5F5"/>
<g opacity="0.5">
<path opacity="0.5" d="M356.42 0H354.156V12.8363H356.42V0Z" fill="#3AD29F"/>
<path opacity="0.5" d="M361.702 7.55062V5.2854L348.874 5.2854V7.55062L361.702 7.55062Z" fill="#3AD29F"/>
</g>
<g opacity="0.5">
<path opacity="0.5" d="M27.4304 164.606H25.1667V177.442H27.4304V164.606Z" fill="#3AD29F"/>
<path opacity="0.5" d="M32.7123 172.157V169.892H19.8847V172.157H32.7123Z" fill="#3AD29F"/>
</g>
<g opacity="0.5">
<path opacity="0.5" d="M450.74 545.164H448.476V558H450.74V545.164Z" fill="#3AD29F"/>
<path opacity="0.5" d="M456.022 552.714V550.449H443.194V552.714H456.022Z" fill="#3AD29F"/>
</g>
<g opacity="0.5">
<path opacity="0.5" d="M34.9761 375.272H32.7124V388.108H34.9761V375.272Z" fill="#3AD29F"/>
<path opacity="0.5" d="M40.2579 382.823V380.558H27.4304V382.823H40.2579Z" fill="#3AD29F"/>
</g>
<g opacity="0.5">
<path opacity="0.5" d="M175.325 394.149H173.061V406.985H175.325V394.149Z" fill="#3AD29F"/>
<path opacity="0.5" d="M180.607 401.7V399.435H167.779V401.7H180.607Z" fill="#3AD29F"/>
</g>
<path opacity="0.5" d="M130.877 506.57C130.253 506.298 129.751 505.806 129.466 505.188C129.181 504.57 129.134 503.868 129.332 503.217C129.364 503.117 129.384 503.014 129.392 502.909V502.909C129.411 502.611 129.332 502.314 129.169 502.064C129.006 501.814 128.766 501.623 128.486 501.519C128.206 501.416 127.899 501.405 127.613 501.49C127.326 501.574 127.074 501.748 126.894 501.987C126.833 502.072 126.781 502.163 126.741 502.26C126.469 502.885 125.977 503.387 125.359 503.672C124.742 503.957 124.04 504.005 123.39 503.806C123.29 503.774 123.187 503.754 123.082 503.746V503.746C122.784 503.728 122.488 503.806 122.238 503.97C121.988 504.133 121.797 504.373 121.693 504.653C121.59 504.934 121.579 505.24 121.664 505.527C121.748 505.814 121.922 506.066 122.161 506.246V506.246C122.245 506.307 122.337 506.359 122.434 506.4C123.057 506.671 123.56 507.163 123.845 507.782C124.129 508.4 124.177 509.102 123.979 509.753C123.946 509.853 123.926 509.956 123.918 510.061V510.061C123.9 510.359 123.979 510.655 124.142 510.906C124.305 511.156 124.545 511.347 124.825 511.45C125.105 511.554 125.411 511.564 125.698 511.48C125.985 511.396 126.236 511.221 126.416 510.983C126.478 510.898 126.53 510.806 126.57 510.709C126.842 510.085 127.333 509.583 127.951 509.298C128.569 509.013 129.27 508.965 129.921 509.163C130.021 509.196 130.124 509.216 130.229 509.224V509.224C130.527 509.242 130.823 509.164 131.073 509C131.323 508.837 131.514 508.597 131.618 508.317C131.721 508.036 131.731 507.73 131.647 507.443C131.563 507.156 131.389 506.904 131.15 506.724V506.724C131.065 506.662 130.974 506.611 130.877 506.57V506.57Z" fill="#F55F44"/>
<path opacity="0.5" d="M318.009 480.898C317.385 480.626 316.883 480.134 316.598 479.515C316.313 478.897 316.265 478.196 316.464 477.544C316.496 477.444 316.516 477.341 316.524 477.237C316.542 476.938 316.464 476.642 316.3 476.392C316.137 476.141 315.898 475.95 315.617 475.847C315.337 475.743 315.031 475.733 314.744 475.817C314.458 475.901 314.206 476.076 314.026 476.314V476.314C313.964 476.399 313.912 476.491 313.872 476.588C313.6 477.212 313.109 477.714 312.491 477.999C311.873 478.285 311.172 478.332 310.521 478.134C310.421 478.102 310.318 478.081 310.214 478.073V478.073C309.915 478.055 309.619 478.134 309.369 478.297C309.119 478.46 308.928 478.7 308.825 478.981C308.721 479.261 308.711 479.567 308.795 479.854C308.879 480.141 309.054 480.393 309.292 480.573V480.573C309.377 480.635 309.468 480.687 309.565 480.727C310.189 480.999 310.691 481.491 310.976 482.109C311.261 482.727 311.309 483.429 311.11 484.08C311.078 484.18 311.058 484.283 311.05 484.388V484.388C311.032 484.686 311.11 484.983 311.273 485.233C311.437 485.483 311.676 485.674 311.956 485.778C312.237 485.881 312.543 485.892 312.829 485.807C313.116 485.723 313.368 485.549 313.548 485.31C313.61 485.225 313.661 485.134 313.702 485.037C313.973 484.413 314.465 483.91 315.083 483.625C315.701 483.34 316.402 483.292 317.053 483.491C317.152 483.523 317.256 483.543 317.36 483.551C317.658 483.569 317.954 483.491 318.205 483.328C318.455 483.164 318.646 482.924 318.749 482.644C318.852 482.364 318.863 482.057 318.779 481.77C318.694 481.484 318.52 481.231 318.282 481.052V481.052C318.197 480.99 318.105 480.938 318.009 480.898V480.898Z" fill="#3AD29F"/>
<path opacity="0.5" d="M390.447 127.523C389.823 127.251 389.321 126.759 389.036 126.141C388.751 125.522 388.703 124.821 388.902 124.17C388.934 124.07 388.954 123.966 388.962 123.862V123.862C388.98 123.563 388.902 123.267 388.738 123.017C388.575 122.766 388.336 122.575 388.055 122.472C387.775 122.369 387.469 122.358 387.182 122.442C386.896 122.527 386.644 122.701 386.464 122.94V122.94C386.402 123.024 386.35 123.116 386.31 123.213C386.038 123.837 385.547 124.34 384.929 124.625C384.311 124.91 383.61 124.958 382.959 124.759C382.859 124.727 382.756 124.707 382.652 124.699V124.699C382.353 124.68 382.057 124.759 381.807 124.922C381.557 125.086 381.366 125.325 381.263 125.606C381.159 125.886 381.149 126.193 381.233 126.479C381.317 126.766 381.492 127.018 381.73 127.198C381.815 127.26 381.906 127.312 382.003 127.352C382.627 127.624 383.129 128.116 383.414 128.734C383.699 129.353 383.747 130.054 383.548 130.705C383.516 130.805 383.496 130.909 383.488 131.013C383.47 131.312 383.548 131.608 383.711 131.858C383.875 132.109 384.114 132.3 384.394 132.403C384.675 132.506 384.981 132.517 385.267 132.433C385.554 132.348 385.806 132.174 385.986 131.935C386.048 131.851 386.099 131.759 386.14 131.662C386.411 131.038 386.903 130.535 387.521 130.25C388.139 129.965 388.84 129.917 389.491 130.116C389.59 130.148 389.694 130.168 389.798 130.176V130.176C390.096 130.195 390.392 130.116 390.643 129.953C390.893 129.789 391.084 129.55 391.187 129.269C391.29 128.989 391.301 128.682 391.217 128.396C391.132 128.109 390.958 127.857 390.72 127.677V127.677C390.635 127.615 390.543 127.563 390.447 127.523V127.523Z" fill="#F55F44"/>
<path opacity="0.5" d="M584.369 132.053C583.745 131.781 583.243 131.289 582.958 130.671C582.673 130.053 582.626 129.351 582.824 128.7C582.856 128.6 582.876 128.497 582.884 128.392C582.903 128.094 582.824 127.797 582.661 127.547C582.498 127.297 582.258 127.106 581.978 127.002C581.698 126.899 581.391 126.888 581.105 126.973C580.818 127.057 580.566 127.231 580.386 127.47V127.47C580.325 127.555 580.273 127.646 580.233 127.743C579.961 128.367 579.469 128.87 578.851 129.155C578.233 129.44 577.532 129.488 576.882 129.289C576.782 129.257 576.679 129.237 576.574 129.229C576.276 129.211 575.98 129.289 575.73 129.453C575.479 129.616 575.289 129.856 575.185 130.136C575.082 130.417 575.071 130.723 575.156 131.01C575.24 131.296 575.414 131.549 575.653 131.728V131.728C575.737 131.79 575.829 131.842 575.926 131.882C576.549 132.154 577.052 132.646 577.336 133.265C577.621 133.883 577.669 134.584 577.471 135.236C577.438 135.336 577.418 135.439 577.41 135.543V135.543C577.392 135.842 577.47 136.138 577.634 136.388C577.797 136.639 578.037 136.83 578.317 136.933C578.597 137.037 578.903 137.047 579.19 136.963C579.476 136.879 579.728 136.704 579.908 136.466V136.466C579.97 136.381 580.022 136.289 580.062 136.192C580.334 135.568 580.825 135.066 581.443 134.781C582.061 134.495 582.762 134.448 583.413 134.646C583.513 134.679 583.616 134.699 583.721 134.707V134.707C584.019 134.725 584.315 134.646 584.565 134.483C584.815 134.32 585.006 134.08 585.109 133.799C585.213 133.519 585.223 133.213 585.139 132.926C585.055 132.639 584.881 132.387 584.642 132.207V132.207C584.557 132.145 584.466 132.093 584.369 132.053V132.053Z" fill="#F55F44"/>
<path opacity="0.5" d="M305.181 339.699C304.557 339.427 304.055 338.935 303.77 338.316C303.485 337.698 303.438 336.997 303.636 336.345C303.668 336.245 303.688 336.142 303.696 336.038C303.714 335.739 303.636 335.443 303.473 335.193C303.31 334.942 303.07 334.751 302.79 334.648C302.509 334.544 302.203 334.534 301.917 334.618C301.63 334.702 301.378 334.877 301.198 335.115V335.115C301.137 335.2 301.085 335.292 301.045 335.389C300.773 336.013 300.281 336.515 299.663 336.8C299.045 337.086 298.344 337.133 297.694 336.935C297.594 336.903 297.491 336.882 297.386 336.874V336.874C297.088 336.856 296.792 336.935 296.542 337.098C296.291 337.261 296.101 337.501 295.997 337.782C295.894 338.062 295.883 338.368 295.968 338.655C296.052 338.942 296.226 339.194 296.465 339.374V339.374C296.549 339.436 296.641 339.488 296.738 339.528C297.361 339.8 297.864 340.292 298.148 340.91C298.433 341.528 298.481 342.23 298.282 342.881C298.25 342.981 298.23 343.084 298.222 343.189V343.189C298.204 343.487 298.282 343.784 298.446 344.034C298.609 344.284 298.849 344.475 299.129 344.579C299.409 344.682 299.715 344.693 300.002 344.608C300.288 344.524 300.54 344.35 300.72 344.111V344.111C300.782 344.026 300.834 343.935 300.874 343.838C301.146 343.214 301.637 342.711 302.255 342.426C302.873 342.141 303.574 342.093 304.225 342.292C304.325 342.324 304.428 342.344 304.533 342.352V342.352C304.831 342.37 305.127 342.292 305.377 342.129C305.627 341.965 305.818 341.725 305.921 341.445C306.025 341.165 306.035 340.858 305.951 340.571C305.867 340.285 305.693 340.032 305.454 339.853C305.369 339.791 305.278 339.739 305.181 339.699Z" fill="#F55F44"/>
<path opacity="0.5" d="M634.17 18.037C633.546 17.7651 633.044 17.2732 632.759 16.6548C632.474 16.0365 632.427 15.3349 632.625 14.6837C632.657 14.5838 632.678 14.4806 632.685 14.376V14.376C632.704 14.0776 632.625 13.7813 632.462 13.531C632.299 13.2806 632.059 13.0896 631.779 12.9861C631.499 12.8827 631.193 12.8723 630.906 12.9565C630.619 13.0408 630.367 13.2152 630.188 13.4539V13.4539C630.126 13.5386 630.074 13.6303 630.034 13.7271C629.762 14.3513 629.27 14.8538 628.653 15.1389C628.035 15.4239 627.334 15.4717 626.683 15.2731C626.583 15.2409 626.48 15.2207 626.375 15.2127V15.2127C626.077 15.1946 625.781 15.273 625.531 15.4364C625.281 15.5998 625.09 15.8395 624.986 16.1199C624.883 16.4004 624.872 16.7067 624.957 16.9935C625.041 17.2804 625.215 17.5324 625.454 17.7124V17.7124C625.538 17.7743 625.63 17.8259 625.727 17.8663C626.351 18.1382 626.853 18.6301 627.138 19.2485C627.422 19.8668 627.47 20.5684 627.272 21.2196C627.24 21.3195 627.219 21.4227 627.211 21.5273V21.5273C627.193 21.8257 627.272 22.122 627.435 22.3723C627.598 22.6227 627.838 22.8137 628.118 22.9172C628.398 23.0206 628.704 23.031 628.991 22.9468C629.278 22.8625 629.529 22.6881 629.709 22.4494V22.4494C629.771 22.3647 629.823 22.273 629.863 22.1762C630.135 21.552 630.626 21.0495 631.244 20.7644C631.862 20.4794 632.563 20.4316 633.214 20.6302C633.314 20.6624 633.417 20.6826 633.522 20.6906V20.6906C633.82 20.7087 634.116 20.6303 634.366 20.4669C634.616 20.3035 634.807 20.0638 634.911 19.7834C635.014 19.5029 635.024 19.1966 634.94 18.9098C634.856 18.6229 634.682 18.3709 634.443 18.1909V18.1909C634.359 18.129 634.267 18.0774 634.17 18.037V18.037Z" fill="#F55F44"/>
<path d="M534.255 224.653L523.9 165.909L310.633 203.554L351.289 434.186C353.23 445.198 359.464 454.989 368.619 461.402C377.773 467.816 389.099 470.327 400.105 468.385L530.379 445.389C535.829 444.427 541.035 442.4 545.702 439.425C550.369 436.45 554.404 432.583 557.578 428.047C560.751 423.511 563.001 418.394 564.198 412.988C565.395 407.582 565.517 401.993 564.556 396.54L559.685 368.91C578.802 365.535 595.796 354.7 606.929 338.787C618.062 322.874 622.422 303.188 619.05 284.058C615.678 264.928 604.849 247.922 588.947 236.782C573.045 225.641 553.372 221.278 534.255 224.653V224.653ZM556.67 351.807L537.27 241.755C544.492 240.48 551.893 240.641 559.053 242.228C566.212 243.815 572.989 246.798 578.996 251.007C585.004 255.215 590.124 260.566 594.064 266.755C598.005 272.943 600.689 279.848 601.963 287.074C603.236 294.3 603.075 301.707 601.489 308.871C599.902 316.036 596.92 322.817 592.715 328.828C588.509 334.839 583.161 339.962 576.976 343.905C570.792 347.848 563.892 350.533 556.67 351.807V351.807Z" fill="#DBE8FC"/>
<path d="M497.585 177.454L333.363 206.443L351.452 309.059L515.674 280.07L497.585 177.454Z" fill="#FAFAFA"/>
<path opacity="0.03" d="M534.419 160.851C529.582 144.251 475.229 145.507 413.018 163.658C350.807 181.809 304.297 209.981 309.134 226.582C312.084 236.707 333.458 240.185 363.795 237.243C362.729 241.72 363.274 246.43 365.334 250.545C367.395 254.66 370.84 257.916 375.062 259.741C379.285 261.566 384.015 261.842 388.421 260.522C392.828 259.202 396.628 256.369 399.153 252.522C406.437 267.342 418.405 276.234 428.652 273.245C439.867 269.973 445.181 253.591 441.694 235.196C447.343 239.616 453.718 241.471 459.631 239.746C466.84 237.642 471.771 230.682 473.59 221.571C478.135 224.002 482.943 224.791 487.48 223.467C493.293 221.771 497.628 216.919 500.043 210.326C504.84 223.394 515.895 231.484 525.651 228.637C536.02 225.612 540.994 211.384 536.762 196.858C534.515 189.145 530.123 182.9 524.946 179.19C532.409 172.385 535.933 166.05 534.419 160.851Z" fill="black"/>
<path d="M532.229 153.337C527.392 136.736 473.039 137.993 410.828 156.144C348.618 174.295 302.107 202.467 306.944 219.068C309.894 229.192 331.269 232.671 361.606 229.729C360.539 234.206 361.084 238.916 363.145 243.031C365.206 247.146 368.65 250.402 372.873 252.226C377.095 254.051 381.826 254.328 386.232 253.008C390.638 251.687 394.438 248.855 396.964 245.008C404.247 259.828 416.216 268.72 426.463 265.73C437.677 262.458 442.992 246.077 439.505 227.682C445.153 232.102 451.529 233.957 457.442 232.231C464.651 230.128 469.581 223.168 471.401 214.056C475.945 216.488 480.754 217.276 485.29 215.953C491.103 214.257 495.438 209.404 497.853 202.812C502.651 215.88 513.705 223.969 523.462 221.122C533.83 218.097 538.805 203.869 534.572 189.344C532.325 181.631 527.934 175.385 522.757 171.676C530.219 164.87 533.744 158.536 532.229 153.337Z" fill="white"/>
<path d="M342.669 259.238C342.669 259.238 378.863 242.882 416.977 259.156C455.092 275.43 506.892 230.25 506.892 230.25L515.668 280.035L401.019 316.411L367.493 313.128L342.669 259.238Z" fill="#E75040"/>
<path opacity="0.05" d="M342.669 259.238C342.669 259.238 378.863 242.882 416.977 259.156C455.092 275.43 506.892 230.25 506.892 230.25L515.668 280.035L401.019 316.411L367.493 313.128L342.669 259.238Z" fill="black"/>
<path d="M539.007 412.43L374.784 441.418L342.669 259.238C397.697 288.782 452.438 279.119 506.892 230.25L539.007 412.43Z" fill="#E75040"/>
<path d="M372.482 299.455C369.219 300.407 370.693 305.483 373.961 304.53C377.224 303.578 375.75 298.502 372.482 299.455Z" fill="#FAFAFA"/>
<path d="M446.521 402.163C443.258 403.115 444.731 408.19 447.999 407.237C451.262 406.285 449.789 401.209 446.521 402.163Z" fill="#FAFAFA"/>
<path d="M409.676 362.663C406.413 363.615 407.886 368.69 411.154 367.737C414.417 366.785 412.944 361.709 409.676 362.663Z" fill="#FAFAFA"/>
<path d="M437.173 318.706C433.91 319.658 435.383 324.733 438.651 323.78C441.914 322.828 440.441 317.752 437.173 318.706Z" fill="#FAFAFA"/>
<path d="M502.915 291.766C499.652 292.718 501.125 297.794 504.394 296.84C507.656 295.888 506.183 290.813 502.915 291.766Z" fill="#FAFAFA"/>
<path d="M1.12511 209.305C-2.24705 228.435 2.113 248.122 13.2461 264.035C24.3792 279.947 41.3733 290.783 60.49 294.157L55.6194 321.788C53.6781 332.8 56.1881 344.134 62.5974 353.295C69.0067 362.456 78.7901 368.694 89.7956 370.636L220.07 393.632C225.52 394.594 231.105 394.473 236.507 393.275C241.91 392.077 247.023 389.825 251.556 386.65C256.089 383.474 259.953 379.436 262.926 374.766C265.9 370.096 267.925 364.886 268.886 359.433L309.542 128.802L96.2749 91.1562L85.9196 149.9C66.8028 146.526 47.1295 150.889 31.2275 162.029C15.3254 173.17 4.49728 190.176 1.12511 209.305V209.305ZM18.2162 212.322C19.49 205.096 22.1736 198.192 26.1139 192.004C30.0542 185.815 35.174 180.464 41.1809 176.256C47.1878 172.048 53.9642 169.065 61.1232 167.477C68.2821 165.889 75.6835 165.728 82.9048 167.003L63.5049 277.055C48.921 274.48 35.9564 266.214 27.4631 254.074C18.9698 241.935 15.6436 226.916 18.2162 212.322V212.322Z" fill="#DBE8FC"/>
<path d="M104.499 205.316L268.723 234.305L286.812 131.689L122.589 102.7L104.499 205.316Z" fill="#FAFAFA"/>
<path opacity="0.03" d="M85.7564 86.0993C90.5934 69.4985 144.946 70.7551 207.157 88.9061C269.368 107.057 315.878 135.229 311.041 151.83C308.091 161.955 286.717 165.433 256.38 162.491C257.446 166.968 256.901 171.678 254.84 175.793C252.78 179.908 249.335 183.164 245.113 184.989C240.89 186.813 236.16 187.09 231.754 185.77C227.347 184.449 223.547 181.617 221.022 177.77C213.738 192.59 201.769 201.482 191.523 198.493C180.308 195.22 174.993 178.839 178.481 160.444C172.832 164.864 166.456 166.719 160.544 164.994C153.334 162.89 148.404 155.93 146.585 146.819C142.04 149.25 137.232 150.039 132.695 148.715C126.882 147.019 122.547 142.167 120.132 135.574C115.335 148.642 104.28 156.731 94.5234 153.885C84.155 150.859 79.1806 136.632 83.413 122.106C85.6603 114.393 90.0515 108.147 95.2284 104.438C87.766 97.6325 84.2416 91.2982 85.7564 86.0993Z" fill="black"/>
<path d="M87.9459 78.5846C92.7828 61.9838 147.136 63.2405 209.346 81.3915C271.557 99.5424 318.068 127.714 313.231 144.315C310.281 154.44 288.906 157.918 258.569 154.976C259.636 159.453 259.091 164.163 257.03 168.278C254.969 172.393 251.525 175.649 247.302 177.474C243.08 179.299 238.349 179.575 233.943 178.255C229.537 176.935 225.737 174.102 223.211 170.256C215.928 185.076 203.959 193.968 193.712 190.978C182.497 187.706 177.183 171.325 180.67 152.929C175.021 157.349 168.646 159.204 162.733 157.479C155.524 155.376 150.593 148.415 148.774 139.304C144.23 141.735 139.421 142.524 134.885 141.2C129.071 139.504 124.737 134.652 122.321 128.06C117.524 141.127 106.47 149.217 96.7128 146.37C86.3444 143.345 81.3701 129.117 85.6024 114.591C87.8497 106.878 92.241 100.633 97.4179 96.9233C89.9555 90.1178 86.4311 83.7836 87.9459 78.5846Z" fill="white"/>
<path d="M277.506 184.485C277.506 184.485 241.312 168.129 203.198 184.403C165.083 200.677 113.283 155.497 113.283 155.497L104.507 205.283L219.156 241.658L252.682 238.375L277.506 184.485Z" fill="#E75040"/>
<path opacity="0.05" d="M277.506 184.485C277.506 184.485 241.312 168.129 203.198 184.403C165.083 200.677 113.283 155.497 113.283 155.497L104.507 205.283L219.156 241.658L252.682 238.375L277.506 184.485Z" fill="black"/>
<path d="M81.1681 337.678L245.391 366.666L277.506 184.485C222.478 214.03 167.737 204.367 113.283 155.497L81.1681 337.678Z" fill="#E75040"/>
<path d="M247.693 224.703C250.955 225.655 249.482 230.731 246.214 229.777C242.951 228.825 244.424 223.749 247.693 224.703Z" fill="#FAFAFA"/>
<path d="M173.654 327.41C176.917 328.362 175.444 333.438 172.175 332.484C168.913 331.533 170.386 326.457 173.654 327.41Z" fill="#FAFAFA"/>
<path d="M210.499 287.91C213.762 288.862 212.289 293.938 209.021 292.984C205.758 292.033 207.231 286.957 210.499 287.91Z" fill="#FAFAFA"/>
<path d="M183.002 243.953C186.265 244.905 184.792 249.981 181.524 249.027C178.261 248.075 179.734 243 183.002 243.953Z" fill="#FAFAFA"/>
<path d="M117.26 217.014C120.522 217.966 119.049 223.041 115.781 222.088C112.518 221.136 113.991 216.06 117.26 217.014Z" fill="#FAFAFA"/>
</svg>
